<svg xmlns="http://www.w3.org/2000/svg" width="1255.922" height="470.989" viewBox="0 0 1255.922 470.989">
  <g id="Group_1469" data-name="Group 1469" transform="translate(-57.606 -1284.25)">
    <path id="Path_75450" data-name="Path 75450" d="M61.991,142.62,0,249.992,61.991,357.364H185.972l61.994-107.372L185.972,142.62Z" transform="translate(57.605 1372.111)" fill="#fbebc0"/>
    <path id="Path_75460" data-name="Path 75460" d="M545.3,349.795,483.307,242.423,545.3,135.049H669.28l61.994,107.374L669.28,349.795Z" transform="translate(379.281 1385.552)" fill="#fbebc0"/>
    <text id="Showcase" transform="translate(108.785 1617.031)" fill="#7e3f98" font-size="18" font-family="Lato-Bold, Lato" font-weight="700"><tspan x="0" y="0">Showcase</tspan></text>
    <path id="Path_75469" data-name="Path 75469" d="M545.3,349.795,483.307,242.423,545.3,135.049H669.28l61.994,107.374L669.28,349.795Z" transform="translate(379.281 1156.17)" fill="#fbebc0"/>
    <path id="Path_75470" data-name="Path 75470" d="M545.3,349.795,483.307,242.423,545.3,135.049H669.28l61.994,107.374L669.28,349.795Z" transform="translate(582.254 1273.037)" fill="#fbebc0"/>
    <path id="Path_75472" data-name="Path 75472" d="M545.3,349.795,483.307,242.423,545.3,135.049H669.28l61.994,107.374L669.28,349.795Z" transform="translate(-233.219 1266.765)" fill="#fbebc0"/>
    <path id="Path_75473" data-name="Path 75473" d="M545.3,349.795,483.307,242.423,545.3,135.049H669.28l61.994,107.374L669.28,349.795Z" transform="translate(-33.746 1379.68)" fill="#fbebc0"/>
    <path id="Path_75474" data-name="Path 75474" d="M545.3,349.795,483.307,242.423,545.3,135.049H669.28l61.994,107.374L669.28,349.795Z" transform="translate(-30.746 1152.436)" fill="#fbebc0"/>
    <path id="Path_75475" data-name="Path 75475" d="M545.3,349.795,483.307,242.423,545.3,135.049H669.28l61.994,107.374L669.28,349.795Z" transform="translate(175.254 1273.037)" fill="#fbebc0"/>
    <text id="_01." data-name="01." transform="translate(108.785 1594.667)" fill="#7e3f98" font-size="26" font-family="Lato-Bold, Lato" font-weight="700"><tspan x="0" y="0">01.</tspan></text>
    <text id="Celebrate" transform="translate(505 1374.603)" fill="#7e3f98" font-size="18" font-family="Lato-Bold, Lato" font-weight="700"><tspan x="0" y="0">Celebrate</tspan></text>
    <text id="_03." data-name="03." transform="translate(505 1352.24)" fill="#7e3f98" font-size="26" font-family="Lato-Bold, Lato" font-weight="700"><tspan x="0" y="0">03.</tspan></text>
    <text id="Solve" transform="translate(308.859 1494.499)" fill="#7e3f98" font-size="18" font-family="Lato-Bold, Lato" font-weight="700"><tspan x="0" y="0">Solve</tspan></text>
    <text id="_02." data-name="02." transform="translate(308.859 1472.135)" fill="#7e3f98" font-size="26" font-family="Lato-Bold, Lato" font-weight="700"><tspan x="0" y="0">02.</tspan></text>
    <text id="Expand" transform="translate(505.215 1606.92)" fill="#7e3f98" font-size="18" font-family="Lato-Bold, Lato" font-weight="700"><tspan x="0" y="0">Expand</tspan></text>
    <text id="_04." data-name="04." transform="translate(505.215 1584.556)" fill="#7e3f98" font-size="26" font-family="Lato-Bold, Lato" font-weight="700"><tspan x="0" y="0">04.</tspan></text>
    <text id="Connect" transform="translate(709.566 1503.25)" fill="#7e3f98" font-size="18" font-family="Lato-Bold, Lato" font-weight="700"><tspan x="0" y="0">Connect</tspan></text>
    <text id="_05." data-name="05." transform="translate(709.566 1480.886)" fill="#7e3f98" font-size="26" font-family="Lato-Bold, Lato" font-weight="700"><tspan x="0" y="0">05.</tspan></text>
    <text id="Launch" transform="translate(917.895 1390.603)" fill="#7e3f98" font-size="18" font-family="Lato-Bold, Lato" font-weight="700"><tspan x="0" y="0">Launch</tspan></text>
    <text id="_06." data-name="06." transform="translate(917.895 1368.24)" fill="#7e3f98" font-size="26" font-family="Lato-Bold, Lato" font-weight="700"><tspan x="0" y="0">06.</tspan></text>
    <text id="Build" transform="translate(913.742 1628.23)" fill="#7e3f98" font-size="18" font-family="Lato-Bold, Lato" font-weight="700"><tspan x="0" y="0">Build</tspan></text>
    <text id="_07." data-name="07." transform="translate(913.742 1605.866)" fill="#7e3f98" font-size="26" font-family="Lato-Bold, Lato" font-weight="700"><tspan x="0" y="0">07.</tspan></text>
    <text id="Contribute" transform="translate(1122.047 1491.862)" fill="#7e3f98" font-size="18" font-family="Lato-Bold, Lato" font-weight="700"><tspan x="0" y="0">Contribute</tspan></text>
    <text id="_08." data-name="08." transform="translate(1122.047 1469.498)" fill="#7e3f98" font-size="26" font-family="Lato-Bold, Lato" font-weight="700"><tspan x="0" y="0">08.</tspan></text>
    <path id="Path_75476" data-name="Path 75476" d="M81.872,181.842,46.651,120.837l35.221-61h70.44l35.223,61-35.223,61.005Z" transform="translate(230.648 1566.126)" fill="#f4eff7"/>
    <path id="Path_75477" data-name="Path 75477" d="M73.641,153.329l-26.99-46.749,26.99-46.747h53.979l26.991,46.747-26.991,46.749Z" transform="translate(640.148 1242.215)" fill="#f4eff7"/>
    <path id="Path_75478" data-name="Path 75478" d="M79.016,171.949,46.651,115.89,79.016,59.833h64.728l32.366,56.057-32.366,56.058Z" transform="translate(1045.938 1224.417)" fill="#f4eff7"/>
    <path id="Path_75479" data-name="Path 75479" d="M81.872,181.842,46.651,120.837l35.221-61h70.44l35.223,61-35.223,61.005Z" transform="translate(695.723 1573.397)" fill="#f9f2d7"/>
    <path id="Path_75549" data-name="Path 75549" d="M74.188,155.223l-27.537-47.7L74.188,59.833H129.26L156.8,107.528l-27.538,47.7Z" transform="translate(110.254 1347.796)" fill="#f4eff7"/>
    <path id="Path_75550" data-name="Path 75550" d="M74.188,155.223l-27.537-47.7L74.188,59.833H129.26L156.8,107.528l-27.538,47.7Z" transform="translate(310.203 1234.777)" fill="#f9f2d7"/>
    <path id="Path_75548" data-name="Path 75548" d="M76.967,164.852l-30.316-52.51L76.967,59.833H137.6l30.318,52.509L137.6,164.852Z" transform="translate(1044.35 1578.888)" fill="#f4eff7"/>
    <text id="Grow_your_initiatives_by_forming_new_partnerships_and_expanding_existing_collaborations." data-name="Grow your initiatives by forming  new partnerships and expanding existing collaborations." transform="translate(505.453 1624.656)" font-size="12" font-family="Lato-Regular, Lato"><tspan x="0" y="12">Grow your initiatives by </tspan><tspan x="0" y="27" xml:space="preserve">forming  new partnerships </tspan><tspan x="0" y="42">and expanding existing </tspan><tspan x="0" y="57">collaborations.</tspan></text>
    <text id="Highlight_and_demonstrate_the_unique_features_and_benefits_of_your_tools_projects_and_programs._" data-name="Highlight and demonstrate 
the unique features and 
benefits of your tools, projects, and programs. " transform="translate(105.977 1634.23)" font-size="12" font-family="Lato-Regular, Lato"><tspan x="0" y="12">Highlight and demonstrate </tspan><tspan x="0" y="27">the unique features and </tspan><tspan x="0" y="42">benefits of your tools, </tspan><tspan x="0" y="57">projects, and programs. </tspan></text>
    <text id="If_you_have_identified_a_key_problem_CSI_2024_is_the_platform_to_develop_a_practical_solution." data-name="If you have identified a key problem, CSI 2024 is the platform to develop 
a practical solution." transform="translate(305.57 1509.186)" font-size="12" font-family="Lato-Regular, Lato"><tspan x="0" y="12">If you have identified a key </tspan><tspan x="0" y="27">problem, CSI 2024 is the </tspan><tspan x="0" y="42">platform to develop </tspan><tspan x="0" y="57">a practical solution.</tspan></text>
    <text id="Recognise_and_honour_the_achievements_and_contributions_of_successful_programs_and_sectoral_leaders." data-name="Recognise and honour the 
achievements and contributions 
of successful programs and sectoral leaders." transform="translate(505 1392.339)" font-size="12" font-family="Lato-Regular, Lato"><tspan x="0" y="12">Recognise and honour the </tspan><tspan x="0" y="27">achievements and contributions </tspan><tspan x="0" y="42">of successful programs and </tspan><tspan x="0" y="57">sectoral leaders.</tspan></text>
    <text id="Opportunity_for_impactful_interactions_with_community_members_and_leaders." data-name="Opportunity for impactful 
interactions with community members and leaders." transform="translate(707.258 1520.601)" font-size="12" font-family="Lato-Regular, Lato"><tspan x="0" y="12">Opportunity for impactful </tspan><tspan x="0" y="27">interactions with community </tspan><tspan x="0" y="42">members and leaders.</tspan></text>
    <text id="Launch_a_new_program_or_book_to_the_public_at_CSI_2024." data-name="Launch a new program or book to the public at CSI 2024." transform="translate(917.586 1408.086)" font-size="12" font-family="Lato-Regular, Lato"><tspan x="0" y="12">Launch a new program </tspan><tspan x="0" y="27">or book to the public at </tspan><tspan x="0" y="42">CSI 2024.</tspan></text>
    <text id="Enhance_skills_and_knowledge_through_hands-on_workshops_and_high-quality_videos._" data-name="Enhance skills and knowledge 
through hands-on workshops 
and high-quality videos.
" transform="translate(911.453 1645.713)" font-size="12" font-family="Lato-Regular, Lato"><tspan x="0" y="12">Enhance skills and knowledge </tspan><tspan x="0" y="27">through hands-on workshops </tspan><tspan x="0" y="42">and high-quality videos.</tspan><tspan x="0" y="57"></tspan></text>
    <text id="Support_CSI_by_contributing_your_valuable_time_monetary_or_in-kind_contributions_to_further_your_cause._" data-name="Support CSI by contributing your valuable time, monetary, or in-kind contributions to further your cause.
" transform="translate(1122.453 1509.667)" font-size="12" font-family="Lato-Regular, Lato"><tspan x="0" y="12">Support CSI by contributing </tspan><tspan x="0" y="27">your valuable time, monetary, </tspan><tspan x="0" y="42">or in-kind contributions to </tspan><tspan x="0" y="57">further your cause.</tspan><tspan x="0" y="72"></tspan></text>
  </g>
</svg>
