<svg xmlns="http://www.w3.org/2000/svg" width="46" height="46" viewBox="0 0 46 46">
  <g id="Group_1491" data-name="Group 1491" transform="translate(-366 -1032)">
    <g id="Ellipse_76" data-name="Ellipse 76" transform="translate(366 1032)" fill="#fff" stroke="#c1e8ea" stroke-width="1">
      <circle cx="23" cy="23" r="23" stroke="none"/>
      <circle cx="23" cy="23" r="22.5" fill="none"/>
    </g>
    <g id="Group_1461" data-name="Group 1461" transform="translate(362.816 1023.999)">
      <g id="Group_1462" data-name="Group 1462" transform="translate(12.184 14.001)">
        <path id="Path_75537" data-name="Path 75537" d="M42.139,45.576c2.182,0,4.364,0,6.546,0,.517,0,.935.087,1.15.658s.516,1.1.777,1.644c.041.086.04.216.175.2.094-.008.129-.1.163-.181a2.165,2.165,0,0,0,.23-.819,3.025,3.025,0,0,1,.317-1.1.677.677,0,0,1,.659-.393c.856-.01,1.712-.018,2.567,0a.846.846,0,0,1,.834.978c-.253,2.125-.235,4.268-.459,6.4-.115,1.089-.035,2.2-.22,3.283a.486.486,0,0,0,.243.537.957.957,0,0,1,.46.824,13.109,13.109,0,0,1-.217,3.529,3.864,3.864,0,0,1-1.836,2.4,4.719,4.719,0,0,1-2.322.613c-.745,0-1.456.254-2.2.3-.532.035-.957.76-.877,1.336.212,1.537.489,3.069.615,4.613a3.389,3.389,0,0,1-1.4,3.133,3.937,3.937,0,0,1-4.278.272,3.513,3.513,0,0,1-1.782-3.762c.176-1.21.415-2.413.474-3.639.019-.4.218-.788.024-1.216a1.257,1.257,0,0,0-1.018-.783,29.794,29.794,0,0,1-3.493-.53,3.773,3.773,0,0,1-2.314-1.936,4.908,4.908,0,0,1-.532-2.387c.008-.6.016-1.2,0-1.8a1.089,1.089,0,0,1,.368-.917.675.675,0,0,0,.218-.6c-.022-2.6-.369-5.176-.409-7.771-.009-.568-.109-1.135-.147-1.7-.057-.85.256-1.179,1.1-1.18q3.294,0,6.589,0m2.8,11.1q3.936,0,7.872,0c.568,0,.676-.1.7-.617.05-1.31.113-2.618.25-3.925.154-1.459.068-2.935.3-4.392.039-.246.152-.562-.238-.674-.557-.16-1.11-.029-1.21.339-.282,1.04-.553,2.086-.771,3.141-.09.437-.291.74-.7.8-.383.056-.628-.275-.774-.576-.532-1.094-1.034-2.2-1.533-3.312a.651.651,0,0,0-.67-.419c-1.7,0-3.394,0-5.091,0-.474,0-.585.122-.511.6a8.6,8.6,0,0,1,.092,1.364c-.007,1.188.333,2.344.3,3.533a.806.806,0,0,1-.643.865.879.879,0,0,1-.794-.765,9.121,9.121,0,0,1-.065-1.024c-.027-1.384-.345-2.745-.33-4.132a.392.392,0,0,0-.464-.431c-.33.012-.351.244-.335.482q.043.618.118,1.234c.193,1.586.148,3.19.363,4.775a.822.822,0,0,1-.7.8.74.74,0,0,1-.713-.658c0-1.329-.322-2.631-.316-3.963a9.7,9.7,0,0,0-.215-2.338c-.052-.217-.142-.371-.4-.344-.277.029-.3.229-.293.436.042.94.042,1.885.15,2.818.173,1.49.208,2.985.276,4.479.025.556-.181.78-.611.8-.462.022-.669-.17-.728-.7-.258-2.323-.32-4.661-.523-6.989-.017-.2-.02-.4-.052-.595-.036-.219-.216-.241-.395-.239s-.342.066-.355.285a3.3,3.3,0,0,0,0,.469c.239,2.726.327,5.462.513,8.192.042.624.067.672.706.672q3.893,0,7.786,0m.089,1.54H41.777c-1.8,0-3.594.007-5.391-.005-.376,0-.55.107-.524.513.03.483-.02.972.019,1.454a2.609,2.609,0,0,0,2.224,2.4c.975.118,1.945.278,2.925.369a2.516,2.516,0,0,1,2.191,1.991,6.555,6.555,0,0,1-.1,2.338c-.172,1.053-.333,2.109-.451,3.169a1.949,1.949,0,0,0,1.08,2.056,2.681,2.681,0,0,0,2.395.052,1.956,1.956,0,0,0,1.178-2.09c-.1-.99-.226-1.981-.41-2.958a9.551,9.551,0,0,1-.172-2.294,2.492,2.492,0,0,1,2.039-2.229c.96-.117,1.911-.313,2.881-.368a2.689,2.689,0,0,0,2.461-2.545c.021-.4.008-.8.007-1.2,0-.654,0-.656-.676-.656H45.028" transform="translate(-30.611 -40.169)" fill="#d8792d"/>
        <path id="Path_75539" data-name="Path 75539" d="M53.237,2.033a.825.825,0,0,1,.774-.768c.473.015.742-.062.736-.632A.678.678,0,0,1,55.518,0a.648.648,0,0,1,.649.7c-.022.436.132.6.562.553.408-.043.613.244.788.55s-.047.514-.188.735c-.158.246-.426.207-.66.2-.335-.011-.493.1-.495.459a.8.8,0,0,1-.72.884.875.875,0,0,1-.736-.9c0-.42-.229-.445-.55-.441a.822.822,0,0,1-.931-.705" transform="translate(-42.377 -0.001)" fill="#d8792d"/>
        <path id="Path_75540" data-name="Path 75540" d="M3.8,71.289c.037.444-.333.574-.693.66-.3.072-.477.178-.493.521-.017.367-.292.493-.623.509s-.61-.071-.659-.448a.618.618,0,0,0-.636-.6.826.826,0,0,1-.7-.8.739.739,0,0,1,.778-.628.482.482,0,0,0,.489-.386c.032-.109.065-.218.105-.324a.6.6,0,0,1,.669-.412.589.589,0,0,1,.571.538.575.575,0,0,0,.615.6c.408.03.578.315.573.764" transform="translate(0 -55.62)" fill="#d8792d"/>
        <path id="Path_75541" data-name="Path 75541" d="M91.127,184.614a1.249,1.249,0,0,1-1.308,1.32,1.294,1.294,0,0,1-1.3-1.345,1.408,1.408,0,0,1,1.329-1.4,1.362,1.362,0,0,1,1.28,1.423" transform="translate(-75.45 -154.228)" fill="#d8792d"/>
      </g>
    </g>
  </g>
</svg>
