<svg xmlns="http://www.w3.org/2000/svg" xmlns:xlink="http://www.w3.org/1999/xlink" width="74" height="74" viewBox="0 0 74 74">
  <defs>
    <clipPath id="clip-path">
      <rect id="Rectangle_920" data-name="Rectangle 920" width="52.913" height="39.33" fill="#2f2faa"/>
    </clipPath>
  </defs>
  <g id="Group_1471" data-name="Group 1471" transform="translate(-547 -860)">
    <g id="Ellipse_74" data-name="Ellipse 74" transform="translate(547 860)" fill="#fff" stroke="#c1e8ea" stroke-width="1">
      <circle cx="37" cy="37" r="37" stroke="none"/>
      <circle cx="37" cy="37" r="36.5" fill="none"/>
    </g>
    <g id="Group_1456" data-name="Group 1456" transform="translate(32 -46.104)">
      <g id="Group_1455" data-name="Group 1455" transform="translate(526 923.104)">
        <g id="Group_1454" data-name="Group 1454" clip-path="url(#clip-path)">
          <path id="Path_75533" data-name="Path 75533" d="M43.121,14.558a5.18,5.18,0,0,1,.389-7.265,5.133,5.133,0,0,1,7.281,7.213c.051.159.2.114.311.149a2.561,2.561,0,0,1-.73,5.01c-.877.022-.877.022-.877.886,0,4.381.007,8.763-.011,13.144,0,.428.117.534.524.512.656-.034,1.315-.019,1.973-.006a.849.849,0,0,1,.924.935q.017,1.629,0,3.259a.845.845,0,0,1-.93.929q-5.04.01-10.079,0a.844.844,0,0,1-.93-.927q-.017-1.63,0-3.259a.857.857,0,0,1,.974-.938c.693-.008,1.387-.013,2.08,0,.265.006.363-.05.363-.345q-.015-6.919-.005-13.839c0-.209.02-.383-.289-.359a2.764,2.764,0,0,1-2.573-.977c-.147-.186-.247-.041-.35.038-.968.753-1.926,1.518-2.9,2.259-.221.167-.136.324-.1.511q.943,4.869,1.881,9.738c.164.846-.159,1.257-1.017,1.257q-12.559,0-25.118,0c-.893,0-1.2-.4-1.031-1.288.628-3.246,1.249-6.493,1.885-9.738a.44.44,0,0,0-.177-.532q-1.361-1.028-2.686-2.1c-.259-.21-.407-.277-.67.027a2.433,2.433,0,0,1-2.164.8c-.459-.042-.541.118-.539.55q.026,6.732,0,13.465c0,.458.122.565.555.538.637-.04,1.279-.018,1.919-.008a.86.86,0,0,1,.949.965q.014,1.6,0,3.206a.857.857,0,0,1-.96.954q-5.013.009-10.026,0a.856.856,0,0,1-.955-.958q-.014-1.6,0-3.206A.858.858,0,0,1,.958,34.2c.657-.01,1.317-.027,1.973.007.389.02.5-.075.5-.485C3.41,30,3.418,26.278,3.418,22.555c0-.837-.013-1.675.007-2.511.007-.3-.067-.407-.377-.385A3.094,3.094,0,0,1,1.684,19.5a2.589,2.589,0,0,1-1.652-2.45,2.633,2.633,0,0,1,2.132-2.478,5.2,5.2,0,0,1-1.108-4.83A4.952,4.952,0,0,1,3.039,6.92a5.086,5.086,0,0,1,6.5.5c1.94,1.878,2.048,4.384.284,7.141a2.644,2.644,0,0,1,2.063,1.986.643.643,0,0,0,.239.274c.9.726,1.807,1.441,2.7,2.174.33.27.384.166.456-.205q1.724-8.953,3.478-17.9C18.9.2,19.142,0,19.852,0q6.613,0,13.226,0c.7,0,.937.2,1.076.91q1.748,8.949,3.479,17.9c.087.451.2.388.472.168.9-.729,1.8-1.448,2.7-2.17a.552.552,0,0,0,.232-.282,2.62,2.62,0,0,1,2.08-1.97M26.438,1.711c-1.884,0-3.767.008-5.651-.007-.345,0-.474.082-.544.448q-1.709,8.9-3.46,17.794a.44.44,0,0,0,.252.555,18.315,18.315,0,0,0,18.822.013.468.468,0,0,0,.26-.6q-1.741-8.868-3.446-17.742c-.077-.4-.225-.471-.584-.468-1.883.016-3.767.007-5.651.007M16.367,22.135c-.53,2.748-1.04,5.454-1.583,8.154-.085.422-.005.5.407.5,3.269-.016,6.538-.009,9.807-.009q6.343,0,12.685.007c.391,0,.552-.024.446-.507-.336-1.545-.608-3.1-.909-4.656-.224-1.156-.455-2.311-.684-3.473a20.444,20.444,0,0,1-20.17-.011M9.385,11.117A3.408,3.408,0,1,0,5.96,14.53a3.419,3.419,0,0,0,3.425-3.413M46.948,14.53a3.415,3.415,0,1,0-3.421-3.414,3.421,3.421,0,0,0,3.421,3.414M6,37.616H8.981c1.276,0,1.257,0,1.271-1.258,0-.394-.127-.457-.482-.455-2.257.015-4.514.007-6.772.006-1.331,0-1.319,0-1.294,1.339.006.316.111.377.4.375C3.4,37.609,4.7,37.616,6,37.616m40.966-1.705v0H43.869c-1.2,0-1.188,0-1.207,1.213-.006.385.072.51.487.505,2.257-.023,4.514-.011,6.772-.011,1.3,0,1.285,0,1.291-1.293,0-.387-.151-.421-.464-.418-1.262.014-2.524.006-3.786.006M5.978,17.952c1.084,0,2.168,0,3.252,0,.627,0,1.01-.336,1.008-.853s-.381-.848-1.012-.849q-3.252-.007-6.5,0c-.63,0-1.009.333-1.007.852s.381.848,1.01.852c1.084.006,2.168,0,3.252,0m40.96-1.705v0c-1.084,0-2.168,0-3.252,0-.632,0-1.012.328-1.012.847s.379.856,1,.857q3.251.007,6.5,0c.629,0,1.011-.33,1.014-.848s-.379-.851-1.006-.854c-1.084-.006-2.168,0-3.252,0M5.171,26.517c0,2.08,0,4.16.006,6.24,0,.178-.121.471.1.519.241.053.448-.16.579-.392a1.1,1.1,0,0,0,.1-.568q0-6.081,0-12.161c0-.278,0-.454-.379-.46-.394-.006-.414.167-.413.475.009,2.116,0,4.231,0,6.347m40.958-.005c0,2.08,0,4.16.006,6.241,0,.179-.12.471.091.522.243.058.448-.157.58-.385a1.083,1.083,0,0,0,.107-.567q0-6.08.005-12.161c0-.329-.059-.461-.43-.465-.4,0-.362.213-.361.469q0,3.174,0,6.347" transform="translate(0 0)" fill="#2f2faa"/>
          <path id="Path_75534" data-name="Path 75534" d="M151.4,63.321c.1-.757.2-1.516.319-2.271a.7.7,0,0,0-.249-.7c-.491-.437-.957-.9-1.435-1.354a.879.879,0,0,1-.313-.908.9.9,0,0,1,.768-.65c.679-.134,1.352-.3,2.034-.41a.654.654,0,0,0,.545-.429c.3-.665.612-1.321.917-1.982a.876.876,0,0,1,.813-.587.862.862,0,0,1,.822.571c.316.676.639,1.348.944,2.028a.612.612,0,0,0,.511.393c.681.119,1.355.278,2.033.41a.911.911,0,0,1,.78.637.9.9,0,0,1-.33.952c-.452.428-.888.874-1.359,1.279a.813.813,0,0,0-.294.838c.109.649.187,1.3.288,1.952a.95.95,0,0,1-.356,1.042.9.9,0,0,1-1.047-.049c-.548-.327-1.113-.628-1.659-.959a.539.539,0,0,0-.633,0c-.592.358-1.19.709-1.8,1.03a.849.849,0,0,1-1.3-.832m3.415-6.4a2.269,2.269,0,0,1-2.48,1.842c.383.557.979.783,1.135,1.34.152.541-.134,1.082-.1,1.769a1.9,1.9,0,0,1,2.879-.033c.028-.679-.266-1.22-.1-1.761s.765-.766,1.126-1.324a2.234,2.234,0,0,1-2.461-1.833" transform="translate(-128.347 -46.328)" fill="#2f2faa"/>
        </g>
      </g>
    </g>
  </g>
</svg>
