<svg xmlns="http://www.w3.org/2000/svg" width="108.875" height="102.544" viewBox="0 0 108.875 102.544">
  <g id="Group_49658" data-name="Group 49658" transform="translate(-263.336 -149.739)">
    <g id="Group_2" data-name="Group 2" transform="translate(289.695 149.739)">
      <path id="Path_26" data-name="Path 26" d="M341.413,150.9h1.4c1.139,0,1.682.577,1.682,1.815v.467c0,1.153-.344,2-1.738,2h-.53v3.381h-.816Zm.816,3.6h.456c.869,0,1-.533,1-1.33v-.411c0-.621-.136-1.163-.924-1.163h-.527Z" transform="translate(-341.413 -150.505)" fill="#fff"/>
      <path id="Path_27" data-name="Path 27" d="M353.056,157.9v-8.006h.816V157.9Z" transform="translate(-349.125 -149.84)" fill="#fff"/>
      <path id="Path_28" data-name="Path 28" d="M360.679,160.949c0,.4.006.839.023,1.011h-.757a4.116,4.116,0,0,1-.062-.475.941.941,0,0,1-.956.567c-.844,0-1.18-.749-1.18-1.651v-.1a1.639,1.639,0,0,1,1.861-1.79h.254v-.924c0-.529-.09-.864-.548-.864s-.578.346-.578.8v.156h-.806v-.145c0-.816.32-1.509,1.41-1.509,1.019,0,1.338.638,1.338,1.5Zm-.8-1.789h-.285c-.661,0-1.056.278-1.056,1.121v.1c0,.522.161.942.618.942.537,0,.722-.43.722-1.3Z" transform="translate(-352.233 -153.903)" fill="#fff"/>
      <path id="Path_29" data-name="Path 29" d="M372.024,160.114v.08c0,1.009-.257,1.857-1.453,1.857-1.14,0-1.419-.79-1.419-1.973V157.81c0-.989.36-1.785,1.47-1.785,1.194,0,1.4.876,1.4,1.656v.237h-.812v-.2c0-.53-.088-.988-.607-.988-.453,0-.631.34-.631,1.032v2.506c0,.529.1,1.082.619,1.082.462,0,.62-.311.62-1.05v-.185Z" transform="translate(-359.787 -153.903)" fill="#fff"/>
      <path id="Path_30" data-name="Path 30" d="M380.085,152.054h.816V157.9h-.816Zm.005-2.163h.816v1.185h-.816Z" transform="translate(-367.029 -149.84)" fill="#fff"/>
      <path id="Path_31" data-name="Path 31" d="M385.672,157.9c0-1.172,0-1.49-.011-1.779h.777a4.815,4.815,0,0,1,.033.584,1.051,1.051,0,0,1,1.07-.676c.639,0,1.152.365,1.152,1.439v4.5h-.816v-4.336c0-.565-.19-.851-.614-.851-.489,0-.776.243-.776,1.348v3.84h-.816Z" transform="translate(-370.722 -153.903)" fill="#fff"/>
      <path id="Path_32" data-name="Path 32" d="M400.376,161.839c0,1.185-.133,2.185-1.594,2.185a1.3,1.3,0,0,1-1.447-1.454v-.029h.822v.035a.664.664,0,0,0,.669.755c.6,0,.735-.45.735-1.292v-.752a.946.946,0,0,1-.988.609c-.892,0-1.236-.651-1.236-1.788v-2.347c0-1.028.445-1.737,1.356-1.737a.887.887,0,0,1,.956.6,4.335,4.335,0,0,1,.044-.509h.706c-.011.322-.023.848-.023,1.538Zm-2.218-4.034v2.237c0,.75.2,1.119.637,1.119.666,0,.771-.665.771-1.452v-1.726c0-.672-.071-1.21-.695-1.21C398.371,156.772,398.158,157.141,398.158,157.805Z" transform="translate(-378.456 -153.903)" fill="#fff"/>
      <path id="Path_33" data-name="Path 33" d="M414.065,158.562,413,150.9h.871c.236,1.865.618,5.088.682,6.3h.017c.107-1.232.628-4.48.885-6.3h.832c.262,1.829.776,4.879.873,6.257h.029c.085-1.312.5-4.384.732-6.257h.834l-1.162,7.667H416.7c-.251-1.792-.722-4.825-.857-6.094h-.017c-.159,1.381-.62,4.32-.888,6.094Z" transform="translate(-388.829 -150.505)" fill="#fff"/>
      <path id="Path_34" data-name="Path 34" d="M434.113,157.775v2.445c0,1.268-.6,1.832-1.538,1.832s-1.508-.556-1.508-1.8v-2.5c0-1.125.593-1.73,1.543-1.73C433.592,156.025,434.113,156.666,434.113,157.775Zm-2.225-.024v2.527c0,.637.214,1.045.7,1.045.454,0,.7-.312.7-1.055v-2.522c0-.575-.191-.991-.7-.991S431.888,157.113,431.888,157.751Z" transform="translate(-400.799 -153.903)" fill="#fff"/>
      <path id="Path_35" data-name="Path 35" d="M442.757,158.131c0-.942.005-1.47-.011-1.989h.779c.011.154.028.521.028.913a1.261,1.261,0,0,1,1.231-.992v1.008c-.722.006-1.21.423-1.21,1.478v3.436h-.816Z" transform="translate(-408.535 -153.928)" fill="#fff"/>
      <path id="Path_36" data-name="Path 36" d="M451.41,154.787h.017c.284-.647.935-2,1.28-2.733h.86l-1.1,2.14,1.238,3.7h-.893l-.9-2.909-.5.943V157.9H450.6v-8.006h.811Z" transform="translate(-413.738 -149.84)" fill="#fff"/>
      <path id="Path_37" data-name="Path 37" d="M460.919,157.8v-5.119H460.3v-.724h.618v-.823c0-.711.268-1.391,1.2-1.391a1.528,1.528,0,0,1,.389.04v.748a1.363,1.363,0,0,0-.263-.024c-.418,0-.509.277-.509.719v.731h.749v.724h-.749V157.8Z" transform="translate(-420.164 -149.739)" fill="#fff"/>
      <path id="Path_38" data-name="Path 38" d="M471,157.775v2.445c0,1.268-.6,1.832-1.538,1.832s-1.509-.556-1.509-1.8v-2.5c0-1.125.594-1.73,1.543-1.73C470.48,156.025,471,156.666,471,157.775Zm-2.225-.024v2.527c0,.637.214,1.045.7,1.045.454,0,.7-.312.7-1.055v-2.522c0-.575-.191-.991-.7-.991S468.776,157.113,468.776,157.751Z" transform="translate(-425.234 -153.903)" fill="#fff"/>
      <path id="Path_39" data-name="Path 39" d="M479.646,158.131c0-.942.005-1.47-.011-1.989h.779c.012.154.028.521.028.913a1.26,1.26,0,0,1,1.231-.992v1.008c-.722.006-1.21.423-1.21,1.478v3.436h-.816Z" transform="translate(-432.971 -153.928)" fill="#fff"/>
      <path id="Path_40" data-name="Path 40" d="M489.9,160.114v.08c0,1.009-.256,1.857-1.453,1.857-1.14,0-1.419-.79-1.419-1.973V157.81c0-.989.36-1.785,1.47-1.785,1.194,0,1.4.876,1.4,1.656v.237h-.812v-.2c0-.53-.088-.988-.607-.988-.453,0-.631.34-.631,1.032v2.506c0,.529.1,1.082.619,1.082.462,0,.62-.311.62-1.05v-.185Z" transform="translate(-437.868 -153.903)" fill="#fff"/>
      <path id="Path_41" data-name="Path 41" d="M498.435,159.206v.956c0,.581.116,1.187.692,1.187.554,0,.656-.451.656-1.01v-.048h.8v.042c0,.677-.158,1.72-1.453,1.72-1.22,0-1.5-.8-1.5-1.987v-2.177c0-.886.31-1.864,1.509-1.864,1.127,0,1.456.836,1.456,1.865v1.317Zm1.375-.666v-.73c0-.545-.088-1.081-.673-1.081-.552,0-.7.456-.7,1.087v.724Z" transform="translate(-444.895 -153.903)" fill="#fff"/>
      <path id="Path_42" data-name="Path 42" d="M379.267,192.562,378.2,184.9h.871c.236,1.865.618,5.088.682,6.3h.017c.107-1.232.628-4.48.885-6.3h.832c.262,1.829.776,4.879.873,6.257h.029c.085-1.312.5-4.384.732-6.257h.834l-1.162,7.667h-.883c-.251-1.792-.722-4.825-.856-6.094h-.017c-.159,1.381-.62,4.32-.888,6.094Z" transform="translate(-365.779 -173.026)" fill="#fff"/>
      <path id="Path_43" data-name="Path 43" d="M397.068,193.206v.956c0,.581.116,1.187.692,1.187.554,0,.656-.451.656-1.01v-.048h.8v.042c0,.677-.158,1.72-1.453,1.72-1.22,0-1.495-.8-1.495-1.987v-2.176c0-.886.31-1.864,1.508-1.864,1.127,0,1.457.836,1.457,1.865v1.317Zm1.375-.666v-.73c0-.545-.088-1.081-.673-1.081-.552,0-.7.456-.7,1.087v.724Z" transform="translate(-377.749 -176.424)" fill="#fff"/>
      <path id="Path_44" data-name="Path 44" d="M407.675,191.9v-8.006h.816V191.9Z" transform="translate(-385.305 -172.361)" fill="#fff"/>
      <path id="Path_45" data-name="Path 45" d="M413.284,191.9v-8.006h.816V191.9Z" transform="translate(-389.02 -172.361)" fill="#fff"/>
      <path id="Path_46" data-name="Path 46" d="M418.871,183.891h.816v2.7a1.051,1.051,0,0,1,1.043-.629c.839,0,1.188.685,1.188,1.693v2.254c0,1.194-.248,2.067-1.318,2.067a.939.939,0,0,1-.968-.64,5,5,0,0,1-.033.56h-.739c.017-.331.012-.852.012-1.545Zm2.224,6.159v-2.269c0-.672-.156-1.072-.645-1.072-.662,0-.77.629-.77,1.434v1.8c0,.885.212,1.291.736,1.291C420.861,191.229,421.1,190.861,421.1,190.05Z" transform="translate(-392.713 -172.361)" fill="#fff"/>
      <path id="Path_47" data-name="Path 47" d="M431,193.206v.956c0,.581.116,1.187.692,1.187.554,0,.657-.451.657-1.01v-.048h.8v.042c0,.677-.158,1.72-1.453,1.72-1.22,0-1.5-.8-1.5-1.987v-2.176c0-.886.31-1.864,1.509-1.864,1.127,0,1.457.836,1.457,1.865v1.317Zm1.375-.666v-.73c0-.545-.088-1.081-.673-1.081-.552,0-.7.456-.7,1.087v.724Z" transform="translate(-400.224 -176.424)" fill="#fff"/>
      <path id="Path_48" data-name="Path 48" d="M441.537,186.054h.816V191.9h-.816Zm.005-2.163h.816v1.185h-.816Z" transform="translate(-407.735 -172.361)" fill="#fff"/>
      <path id="Path_49" data-name="Path 49" d="M447.124,191.9c0-1.172,0-1.49-.012-1.779h.777a4.793,4.793,0,0,1,.034.584,1.051,1.051,0,0,1,1.07-.676c.639,0,1.152.365,1.152,1.439v4.5h-.816v-4.336c0-.566-.19-.851-.614-.851-.489,0-.776.243-.776,1.348v3.84h-.816Z" transform="translate(-411.428 -176.424)" fill="#fff"/>
      <path id="Path_50" data-name="Path 50" d="M461.828,195.839c0,1.185-.133,2.185-1.594,2.185a1.3,1.3,0,0,1-1.447-1.454v-.029h.822v.035a.664.664,0,0,0,.669.755c.6,0,.735-.45.735-1.292v-.752a.946.946,0,0,1-.988.609c-.892,0-1.236-.651-1.236-1.788v-2.347c0-1.028.445-1.737,1.356-1.737a.887.887,0,0,1,.956.6,4.232,4.232,0,0,1,.045-.509h.706c-.012.322-.023.848-.023,1.538Zm-2.218-4.034v2.237c0,.75.2,1.118.637,1.118.666,0,.771-.665.771-1.452v-1.726c0-.672-.071-1.21-.7-1.21C459.823,190.772,459.61,191.141,459.61,191.805Z" transform="translate(-419.162 -176.424)" fill="#fff"/>
    </g>
    <path id="Path_51" data-name="Path 51" d="M330.385,191.86h-9.84v71.7h5.529V225.595h4.31a7.1,7.1,0,0,0,7.1-7.1V198.957A7.042,7.042,0,0,0,330.385,191.86Zm1.266,26.616a1.553,1.553,0,0,1-1.566,1.566h-4.31V197.368h4.31a1.5,1.5,0,0,1,1.566,1.567Z" transform="translate(-37.895 -27.901)" fill="#fff"/>
    <path id="Path_52" data-name="Path 52" d="M277.173,258.427h5.53v43.055a7.1,7.1,0,0,1-7.1,7.1h-.922a7.1,7.1,0,0,1-7.1-7.1V258.427h5.53v43.055a1.553,1.553,0,0,0,1.566,1.567h.922a1.553,1.553,0,0,0,1.567-1.567Z" transform="translate(-2.817 -71.995)" fill="#fff"/>
    <path id="Path_53" data-name="Path 53" d="M272.921,254.175h5.53V297.23a7.1,7.1,0,0,1-7.1,7.1h-.922a7.1,7.1,0,0,1-7.1-7.1V254.175h5.53V297.23a1.553,1.553,0,0,0,1.566,1.567h.922a1.553,1.553,0,0,0,1.567-1.567Z" transform="translate(0 -69.178)" fill="#f40f34"/>
    <path id="Path_54" data-name="Path 54" d="M326.133,187.608h-9.84v71.7h5.53V221.343h4.31a7.1,7.1,0,0,0,7.1-7.1V194.7A7.042,7.042,0,0,0,326.133,187.608Zm1.266,26.616a1.553,1.553,0,0,1-1.566,1.566h-4.31V193.116h4.31a1.5,1.5,0,0,1,1.566,1.567Z" transform="translate(-35.079 -25.084)" fill="#f40f34"/>
    <path id="Path_55" data-name="Path 55" d="M356.44,298.657v5.069h-4.977v7.757h4.977v5.069h-4.977v17.754h-5.53V298.657Z" transform="translate(-54.713 -98.643)" fill="#f40f34"/>
    <path id="Path_56" data-name="Path 56" d="M394.71,255.362a8.548,8.548,0,0,0-2.857-5.622,6.983,6.983,0,0,0,4.7-6.636V231.517a7.041,7.041,0,0,0-7.1-7.1h-7.926v60.712h5.53v-32.9a3.335,3.335,0,0,1,2.12,2.765l2.949,30.138h5.622Zm-5.892-12.72a1.553,1.553,0,0,1-1.567,1.566h-2.4V227.644h2.4a1.5,1.5,0,0,1,1.567,1.567Z" transform="translate(-78.292 -49.469)" fill="#f40f34"/>
    <path id="Path_57" data-name="Path 57" d="M440.056,273.786h-.83a7.1,7.1,0,0,0-7.1,7.1v30.774a7.1,7.1,0,0,0,7.1,7.1h.83a7.041,7.041,0,0,0,7.1-7.1V280.883A7.042,7.042,0,0,0,440.056,273.786Zm.209,36.7a1.5,1.5,0,0,1-1.567,1.567h-.829a1.553,1.553,0,0,1-1.567-1.567V279.707a1.553,1.553,0,0,1,1.567-1.566h.829a1.5,1.5,0,0,1,1.567,1.566Z" transform="translate(-111.809 -82.169)" fill="#f40f34"/>
    <path id="Path_58" data-name="Path 58" d="M492.733,217.908h5.53v62.91H493.1l-7.189-37.551,1.014,37.551H481.4v-62.91h5.069l7.189,39.75Z" transform="translate(-144.444 -45.155)" fill="#f40f34"/>
    <path id="Path_59" data-name="Path 59" d="M535.391,264.7H552.42v7.94h-3.835v39.174h-9.358V272.639h-3.835Z" transform="translate(-180.209 -76.15)" fill="#f40f34"/>
    <path id="Path_60" data-name="Path 60" d="M352.189,294.4v5.069h-4.977v7.757h4.977V312.3h-4.977v17.754h-5.529V294.4Z" transform="translate(-51.897 -95.827)" fill="#fff"/>
    <path id="Path_61" data-name="Path 61" d="M390.458,251.11a8.55,8.55,0,0,0-2.857-5.622,6.983,6.983,0,0,0,4.7-6.636V227.265a7.041,7.041,0,0,0-7.1-7.1h-7.926V280.88h5.53v-32.9a3.335,3.335,0,0,1,2.12,2.765l2.949,30.138H393.5ZM386,239.826a1.553,1.553,0,0,1-1.567,1.566h-2.4V224.828h2.4A1.5,1.5,0,0,1,386,226.395Z" transform="translate(-75.476 -46.652)" fill="#fff"/>
    <path id="Path_62" data-name="Path 62" d="M435.8,269.534h-.83a7.1,7.1,0,0,0-7.1,7.1V307.4a7.1,7.1,0,0,0,7.1,7.1h.83a7.042,7.042,0,0,0,7.1-7.1V276.631A7.042,7.042,0,0,0,435.8,269.534Zm1.644,38.131a1.5,1.5,0,0,1-1.567,1.567h-.829a1.553,1.553,0,0,1-1.567-1.567V276.891a1.553,1.553,0,0,1,1.567-1.566h.829a1.5,1.5,0,0,1,1.567,1.566Z" transform="translate(-108.993 -79.352)" fill="#fff"/>
    <path id="Path_63" data-name="Path 63" d="M488.481,213.656h5.53v62.91H488.85l-7.189-37.551,1.014,37.551h-5.53v-62.91h5.069l7.189,39.75Z" transform="translate(-141.627 -42.339)" fill="#fff"/>
    <path id="Path_64" data-name="Path 64" d="M531.139,260.447h17.029v7.94h-3.836V307.56h-9.358V268.387h-3.835Z" transform="translate(-177.393 -73.333)" fill="#fff"/>
    <path id="Path_197" data-name="Path 197" d="M1.888-6.281v2.959H1.15V-10.88H3.021a1.514,1.514,0,0,1,1.286.631A2.754,2.754,0,0,1,4.775-8.57,2.739,2.739,0,0,1,4.33-6.891a1.536,1.536,0,0,1-1.256.61Zm0-.815H3.021a.861.861,0,0,0,.754-.379,1.9,1.9,0,0,0,.262-1.085,1.954,1.954,0,0,0-.27-1.09.844.844,0,0,0-.742-.41H1.888Zm5.94,3.773a2.532,2.532,0,0,1-.093-.612,1.112,1.112,0,0,1-.968.716,1.106,1.106,0,0,1-.925-.428,1.927,1.927,0,0,1-.333-1.207,1.961,1.961,0,0,1,.452-1.36A1.609,1.609,0,0,1,7.2-6.727h.524v-.6A1.147,1.147,0,0,0,7.55-8.04a.641.641,0,0,0-.528-.213.645.645,0,0,0-.524.247.956.956,0,0,0-.2.625H5.582a1.8,1.8,0,0,1,.2-.823,1.571,1.571,0,0,1,.532-.615,1.315,1.315,0,0,1,.746-.223,1.237,1.237,0,0,1,1.018.428,1.969,1.969,0,0,1,.357,1.248v2.834A4.325,4.325,0,0,0,8.57-3.405v.083Zm-.952-.732a.8.8,0,0,0,.5-.187,1.082,1.082,0,0,0,.347-.467V-6.047h-.4a1.146,1.146,0,0,0-.8.293,1.046,1.046,0,0,0-.294.792,1.244,1.244,0,0,0,.149.693A.569.569,0,0,0,6.876-4.054ZM11.34-8.077a1.361,1.361,0,0,0-.323-.036q-.548,0-.766.773v4.017H9.538V-8.938h.694l.012.571q.286-.675.811-.675a.512.512,0,0,1,.282.073ZM13.187-10.3v1.36h.657V-8.2h-.657v3.483a1.173,1.173,0,0,0,.085.5.3.3,0,0,0,.29.171.722.722,0,0,0,.286-.062l-.008.779a1.247,1.247,0,0,1-.5.1.7.7,0,0,1-.645-.389,2.245,2.245,0,0,1-.222-1.1V-8.2h-.665v-.742h.665V-10.3ZM16.434-6.39A3.537,3.537,0,0,1,16.9-8.328a1.4,1.4,0,0,1,1.22-.714,1.406,1.406,0,0,1,1.22.7,3.454,3.454,0,0,1,.474,1.895v.592a3.525,3.525,0,0,1-.46,1.931,1.4,1.4,0,0,1-1.226.711,1.4,1.4,0,0,1-1.216-.69,3.43,3.43,0,0,1-.474-1.869Zm.714.529A2.924,2.924,0,0,0,17.412-4.5a.8.8,0,0,0,.712.5q.944,0,.972-1.754V-6.39a2.924,2.924,0,0,0-.266-1.362.8.8,0,0,0-.714-.5.791.791,0,0,0-.7.5A2.93,2.93,0,0,0,17.148-6.4Zm3.9,2.538V-8.2h-.569v-.742h.569v-.649a2.429,2.429,0,0,1,.337-1.337,1.044,1.044,0,0,1,.917-.48,1.143,1.143,0,0,1,.431.088l-.036.779a1.114,1.114,0,0,0-.327-.047q-.609,0-.609,1.116v.529H22.5V-8.2h-.746v4.874Zm7.973-2.4a3.288,3.288,0,0,1-.53,1.858,1.6,1.6,0,0,1-1.361.644,1.58,1.58,0,0,1-1.4-.864,4.529,4.529,0,0,1-.52-2.343V-7.8a4.378,4.378,0,0,1,.534-2.331,1.644,1.644,0,0,1,1.458-.856,1.52,1.52,0,0,1,1.317.657,3.417,3.417,0,0,1,.506,1.876H28.27a2.825,2.825,0,0,0-.3-1.318.858.858,0,0,0-.774-.394,1.006,1.006,0,0,0-.923.6,3.861,3.861,0,0,0-.323,1.773V-6.4a4.1,4.1,0,0,0,.3,1.76.947.947,0,0,0,.877.612.937.937,0,0,0,.831-.369A2.794,2.794,0,0,0,28.27-5.72Zm3.145,2.4a2.532,2.532,0,0,1-.093-.612,1.112,1.112,0,0,1-.968.716,1.106,1.106,0,0,1-.926-.428,1.927,1.927,0,0,1-.333-1.207,1.961,1.961,0,0,1,.452-1.36,1.609,1.609,0,0,1,1.238-.514h.524v-.6a1.147,1.147,0,0,0-.173-.716.641.641,0,0,0-.528-.213.645.645,0,0,0-.524.247.956.956,0,0,0-.2.625h-.714a1.8,1.8,0,0,1,.2-.823,1.571,1.571,0,0,1,.532-.615,1.315,1.315,0,0,1,.746-.223,1.237,1.237,0,0,1,1.018.428,1.969,1.969,0,0,1,.357,1.248v2.834A4.324,4.324,0,0,0,32.9-3.405v.083Zm-.952-.732a.8.8,0,0,0,.5-.187,1.082,1.082,0,0,0,.347-.467V-6.047h-.4a1.146,1.146,0,0,0-.8.293,1.046,1.046,0,0,0-.294.792,1.244,1.244,0,0,0,.149.693A.569.569,0,0,0,31.209-4.054Zm3.6-6.244v1.36h.657V-8.2h-.657v3.483a1.173,1.173,0,0,0,.085.5.3.3,0,0,0,.29.171.722.722,0,0,0,.286-.062l-.008.779a1.247,1.247,0,0,1-.5.1.7.7,0,0,1-.645-.389,2.245,2.245,0,0,1-.222-1.1V-8.2h-.665v-.742H34.1V-10.3Zm3.75,6.976a2.531,2.531,0,0,1-.093-.612,1.112,1.112,0,0,1-.968.716,1.106,1.106,0,0,1-.925-.428,1.927,1.927,0,0,1-.333-1.207,1.961,1.961,0,0,1,.452-1.36,1.609,1.609,0,0,1,1.238-.514h.524v-.6a1.147,1.147,0,0,0-.173-.716.641.641,0,0,0-.528-.213.645.645,0,0,0-.524.247.956.956,0,0,0-.2.625h-.714a1.8,1.8,0,0,1,.2-.823,1.571,1.571,0,0,1,.532-.615,1.315,1.315,0,0,1,.746-.223,1.237,1.237,0,0,1,1.018.428,1.969,1.969,0,0,1,.357,1.248v2.834A4.325,4.325,0,0,0,39.3-3.405v.083Zm-.952-.732a.8.8,0,0,0,.5-.187,1.082,1.082,0,0,0,.347-.467V-6.047h-.4a1.146,1.146,0,0,0-.8.293,1.046,1.046,0,0,0-.294.792,1.244,1.244,0,0,0,.149.693A.569.569,0,0,0,37.605-4.054Zm3.432.732h-.714v-7.972h.714Zm2.315-1.526.794-4.09H44.9l-1.428,6.41a2.765,2.765,0,0,1-.456,1.1.844.844,0,0,1-.669.376,1.129,1.129,0,0,1-.371-.083v-.779l.157.021a.629.629,0,0,0,.486-.189,1.478,1.478,0,0,0,.284-.657l.141-.628L41.767-8.938h.778Zm4.367.088a.78.78,0,0,0-.173-.509,2.525,2.525,0,0,0-.669-.5,4.116,4.116,0,0,1-.813-.524,1.423,1.423,0,0,1-.353-.5,1.7,1.7,0,0,1-.117-.662,1.689,1.689,0,0,1,.389-1.139,1.251,1.251,0,0,1,.994-.454A1.253,1.253,0,0,1,48-8.565a1.883,1.883,0,0,1,.387,1.225h-.71a1.057,1.057,0,0,0-.2-.646.6.6,0,0,0-.5-.267.615.615,0,0,0-.494.21.838.838,0,0,0-.179.563.724.724,0,0,0,.131.452,2.275,2.275,0,0,0,.631.452,3.1,3.1,0,0,1,1.081.781,1.568,1.568,0,0,1,.286.968,1.693,1.693,0,0,1-.391,1.17,1.335,1.335,0,0,1-1.049.439,1.375,1.375,0,0,1-1.1-.5A1.916,1.916,0,0,1,45.465-5h.718a1.2,1.2,0,0,0,.222.732A.708.708,0,0,0,46.993-4a.692.692,0,0,0,.54-.205A.793.793,0,0,0,47.719-4.76ZM50.3-10.3v1.36h.657V-8.2H50.3v3.483a1.173,1.173,0,0,0,.085.5.3.3,0,0,0,.29.171.722.722,0,0,0,.286-.062l-.008.779a1.247,1.247,0,0,1-.5.1.7.7,0,0,1-.645-.389,2.245,2.245,0,0,1-.222-1.1V-8.2h-.665v-.742h.665V-10.3Zm7.17,6.036-.129.208a1.834,1.834,0,0,1-1.629.836,1.7,1.7,0,0,1-1.494-.812,4.18,4.18,0,0,1-.554-2.3V-7.812a4.57,4.57,0,0,1,.494-2.38,1.628,1.628,0,0,1,1.478-.792,1.577,1.577,0,0,1,1.313.6,2.938,2.938,0,0,1,.522,1.718h-.738a2.268,2.268,0,0,0-.3-1.1.878.878,0,0,0-.788-.4.986.986,0,0,0-.928.532,3.764,3.764,0,0,0-.306,1.7V-6.39a3.667,3.667,0,0,0,.339,1.752,1.061,1.061,0,0,0,.972.61,1.112,1.112,0,0,0,.907-.374l.109-.13V-6.276H55.656v-.81h1.811Zm2.908-3.815a1.361,1.361,0,0,0-.323-.036q-.548,0-.766.773v4.017h-.714V-8.938h.694l.012.571q.286-.675.811-.675a.512.512,0,0,1,.282.073Zm.48,1.687a3.537,3.537,0,0,1,.462-1.939,1.4,1.4,0,0,1,1.22-.714,1.406,1.406,0,0,1,1.22.7,3.454,3.454,0,0,1,.474,1.895v.592a3.525,3.525,0,0,1-.46,1.931,1.4,1.4,0,0,1-1.226.711,1.4,1.4,0,0,1-1.216-.69,3.43,3.43,0,0,1-.474-1.869Zm.714.529A2.924,2.924,0,0,0,61.832-4.5a.8.8,0,0,0,.712.5q.944,0,.972-1.754V-6.39a2.924,2.924,0,0,0-.266-1.362.8.8,0,0,0-.714-.5.791.791,0,0,0-.7.5A2.93,2.93,0,0,0,61.567-6.4Zm5.807,2.045a1.136,1.136,0,0,1-1.036.6.972.972,0,0,1-.9-.527,3.158,3.158,0,0,1-.306-1.534V-8.938h.71v3.592q0,1.313.613,1.313a.918.918,0,0,0,.9-.747V-8.938h.714v5.616h-.677Zm4.92-2.045a4.13,4.13,0,0,1-.373,1.988,1.161,1.161,0,0,1-1.055.654,1.108,1.108,0,0,1-1.012-.638v2.694h-.71V-8.938h.645l.036.623a1.119,1.119,0,0,1,1.028-.727,1.152,1.152,0,0,1,1.073.644,4.184,4.184,0,0,1,.367,1.926Zm-.71-.524a3.252,3.252,0,0,0-.226-1.394.758.758,0,0,0-.726-.449q-.512,0-.778.659v2.922q.262.644.786.644a.75.75,0,0,0,.712-.449,3.2,3.2,0,0,0,.232-1.373Z" transform="translate(280.554 253.337)" fill="#fff"/>
  </g>
</svg>
