<svg xmlns="http://www.w3.org/2000/svg" width="26" height="26" viewBox="0 0 26 26">
  <g id="Group_1301" data-name="Group 1301" transform="translate(-108 -1442)">
    <circle id="Ellipse_24" data-name="Ellipse 24" cx="13" cy="13" r="13" transform="translate(108 1442)" fill="#7e3f98"/>
    <g id="Group_1297" data-name="Group 1297" transform="translate(113.171 1447.507)">
      <g id="Group_1298" data-name="Group 1298" transform="translate(0 0)">
        <path id="Path_31783" data-name="Path 31783" d="M8.67.522l1.693,3.431a.937.937,0,0,0,.705.513l3.787.551a.938.938,0,0,1,.519,1.6l-2.74,2.671a.936.936,0,0,0-.269.829l.647,3.772a.937.937,0,0,1-1.36.988l-3.388-1.78a.939.939,0,0,0-.872,0l-3.386,1.78a.937.937,0,0,1-1.36-.988l.647-3.772a.939.939,0,0,0-.269-.829L.284,6.615A.938.938,0,0,1,.8,5.016L4.59,4.465A.934.934,0,0,0,5.3,3.953L6.989.522a.938.938,0,0,1,1.681,0" transform="translate(0 0)" fill="#f5d47b"/>
      </g>
    </g>
  </g>
</svg>
