<svg xmlns="http://www.w3.org/2000/svg" width="55.21" height="42.39" viewBox="0 0 55.21 42.39">
  <g id="Group_1355" data-name="Group 1355" transform="translate(5.7 -8.428)">
    <g id="Group_1356" data-name="Group 1356">
      <path id="Path_32138" data-name="Path 32138" d="M25.161,5.008V3.224A2.524,2.524,0,0,0,22.637.7H3.224A2.524,2.524,0,0,0,.7,3.224V15.735a2.524,2.524,0,0,0,2.524,2.524l6.362.048.265,4.469,6-4.517" transform="translate(-5 9.128)" fill="none" stroke="#7e3f98" stroke-width="2.8"/>
      <line id="Line_53" data-name="Line 53" x2="11.645" transform="translate(-0.559 16.588)" fill="none" stroke="#7e3f98" stroke-width="2.8"/>
      <line id="Line_54" data-name="Line 54" x2="5.678" transform="translate(-0.559 20.777)" fill="none" stroke="#7e3f98" stroke-width="2.8"/>
      <path id="Path_32139" data-name="Path 32139" d="M38.323,22.111a8.756,8.756,0,1,1-8.755-8.755A8.755,8.755,0,0,1,38.323,22.111Z" fill="none" stroke="#7e3f98" stroke-width="2.8"/>
      <path id="Path_32140" data-name="Path 32140" d="M11.025,50.818V43.877a8.7,8.7,0,0,1,8.7-8.7H39.408a8.7,8.7,0,0,1,8.7,8.7v6.941" fill="none" stroke="#7e3f98" stroke-width="2.8"/>
      <line id="Line_55" data-name="Line 55" y1="6.147" transform="translate(19.706 44.671)" fill="none" stroke="#7e3f98" stroke-width="2.8"/>
    </g>
  </g>
</svg>
