<svg xmlns="http://www.w3.org/2000/svg" width="55.451" height="31.686" viewBox="0 0 55.451 31.686">
  <g id="Group_1352" data-name="Group 1352" transform="translate(0 0)">
    <g id="Group_1353" data-name="Group 1353" transform="translate(0 0)">
      <path id="Path_32135" data-name="Path 32135" d="M15.532,2.642a3.3,3.3,0,1,1-3.3,3.3,3.3,3.3,0,0,1,3.3-3.3m0,9.242A5.941,5.941,0,1,0,9.591,5.942a5.948,5.948,0,0,0,5.941,5.941" transform="translate(-6.95 -0.001)" fill="#7e3f98"/>
      <path id="Path_32136" data-name="Path 32136" d="M154.6,2.642a3.3,3.3,0,1,1-3.3,3.3,3.3,3.3,0,0,1,3.3-3.3m0,9.242a5.941,5.941,0,1,0-5.941-5.941,5.948,5.948,0,0,0,5.941,5.941" transform="translate(-107.732 -0.001)" fill="#7e3f98"/>
      <path id="Path_32137" data-name="Path 32137" d="M31.686,28.91v1.32c0,3.64,2.369,6.6,5.281,6.6h7.922v2.641H10.562V36.831h7.922c2.913,0,5.281-2.961,5.281-6.6V28.91H15.183l-.126-.168L19.4,17.028H36.049l4.346,11.714-.126.168ZM50.17,23.629H44.229l-1.95,2.6L37.886,14.387H17.565L13.173,26.23l-1.951-2.6H5.281A5.287,5.287,0,0,0,0,28.91v13.2H2.641V28.91a2.644,2.644,0,0,1,2.641-2.641H9.9l3.961,5.281h7.1c-.371,1.521-1.359,2.641-2.484,2.641H9.948L7.7,30.818,5.5,32.283l2.419,3.628v6.2H47.53v-6.2l2.419-3.628-2.2-1.465L45.5,34.191H36.967c-1.124,0-2.112-1.119-2.483-2.641h7.1l3.961-5.281H50.17a2.644,2.644,0,0,1,2.641,2.641v13.2h2.641V28.91a5.286,5.286,0,0,0-5.281-5.281" transform="translate(0 -10.426)" fill="#7e3f98"/>
    </g>
  </g>
</svg>
