<svg xmlns="http://www.w3.org/2000/svg" width="44.084" height="44.084" viewBox="0 0 44.084 44.084">
  <g id="Group_1346" data-name="Group 1346" transform="translate(0.9 0.9)">
    <g id="Group_1347" data-name="Group 1347">
      <path id="Path_32117" data-name="Path 32117" d="M21.142.5A20.642,20.642,0,1,1,.5,21.142,20.642,20.642,0,0,1,21.142.5" fill="none" stroke="#7e3f98" stroke-width="2.8"/>
      <circle id="Ellipse_38" data-name="Ellipse 38" cx="20.642" cy="20.642" r="20.642" transform="translate(0.5 0.5)" fill="none" stroke="#7e3f98" stroke-width="2.8"/>
      <path id="Path_32118" data-name="Path 32118" d="M21.429,9.629a6.656,6.656,0,1,1-6.656,6.656,6.656,6.656,0,0,1,6.656-6.656" fill="none" stroke="#7e3f98" stroke-width="2.8"/>
      <path id="Path_32119" data-name="Path 32119" d="M21.429,9.629a6.656,6.656,0,1,1-6.656,6.656A6.656,6.656,0,0,1,21.429,9.629Z" fill="none" stroke="#7e3f98" stroke-width="2.8"/>
      <path id="Path_32120" data-name="Path 32120" d="M34.641,36.871v-.785a9.226,9.226,0,0,0-9.225-9.227h-8.55A9.226,9.226,0,0,0,7.64,36.085h0v.986" fill="none" stroke="#7e3f98" stroke-width="2.8"/>
    </g>
  </g>
</svg>
