<svg xmlns="http://www.w3.org/2000/svg" width="141.015" height="136.875" viewBox="0 0 141.015 136.875">
  <g id="Group_1321" data-name="Group 1321" transform="translate(-859.992 -1688.933)">
    <g id="Group_1311" data-name="Group 1311" transform="translate(860.492 1689.433)">
      <g id="Group_106" data-name="Group 106" transform="translate(0)">
        <path id="Path_14516" data-name="Path 14516" d="M67.594,0h2.069a1.925,1.925,0,0,0,2.445,1.361c5.75-1.611,11.112.512,16.684,1.284a44.7,44.7,0,0,1,18.079,6.741c16.187,10.239,26.653,24.655,31.241,43.28.711,2.887,1.273,5.812,1.9,8.719V76.56c-.806.828-.6,1.934-.784,2.926-4.246,23.514-16.906,40.844-38.149,51.831a41.268,41.268,0,0,1-11.94,4.25c6.043-5.089,14.336-7.075,19.407-13.823-1.3-.61-1.853.19-2.486.537-4.116,2.262-8.2,4.586-12.307,6.861-1.015.561-2.412,1.193-3.049-.05-.839-1.638,2,.144,1.6-1.777-1.343-.364-2.415.565-3.559,1.118-3.882,1.877-7.621,4.1-11.787,5.315-8.72,2.539-17.477,1.973-26.084-.4-2.574-.711-5.313.984-7.281-.354-2.6-1.766-5.642-2.19-8.237-3.77C16.036,117.45,4.42,100.557,1.116,78.057.84,76.174,1.2,74.132,0,72.421V64.834c1.075-.864.657-2.12.781-3.2A69.209,69.209,0,0,1,18.461,22.04c.772-.854,1.4-2,2.662-2.23,1.375,2.128-1.678,2.967-1.034,4.993,1.5-.855,2.153-2.413,3.473-3.319,4.145-2.848,8.1-5.975,12.183-8.907C41.71,8.3,46.985,2.733,55.005,2.249c-1.208,1.7-4.226,2.024-4.5,5.341,2.046-1.1,3.609-2.056,5.259-2.814C59.421,3.1,62.637.192,67.349,1.793,69,2.356,67.541.654,67.594,0m34.225,122.013-.348-.766c-2.924.814-5.192,2.892-7.694,4.5a.987.987,0,0,0-.14,1.508c.526.648,1,.212,1.444-.119q3.377-2.551,6.737-5.127" transform="translate(-0.001)" fill="#fff" stroke="#f5d47b" stroke-width="1"/>
      </g>
    </g>
    <g id="Group_1320" data-name="Group 1320">
      <rect id="Rectangle_737" data-name="Rectangle 737" width="27" height="5" transform="translate(917 1777)" fill="#f5d47b"/>
      <g id="Group_1318" data-name="Group 1318" transform="translate(894.715 1718.782)">
        <g id="Group_1319" data-name="Group 1319">
          <path id="Path_31810" data-name="Path 31810" d="M58.788,31.04a23.3,23.3,0,1,0-39.433,16.8,8.972,8.972,0,0,1,2.673,6.49v9.46a5.063,5.063,0,0,0,5.063,5.064H43.75a5.064,5.064,0,0,0,5.064-5.064v-9.55a8.945,8.945,0,0,1,2.832-6.424A23.217,23.217,0,0,0,58.788,31.04Z" fill="none" stroke="#000" stroke-width="1"/>
          <path id="Path_31811" data-name="Path 31811" d="M42.566,68.858a7.08,7.08,0,0,1-14.159,0Z" fill="#9863b9" stroke="#000" stroke-width="1"/>
          <line id="Line_42" data-name="Line 42" x2="26.786" transform="translate(22.027 63.006)" fill="none" stroke="#000" stroke-width="1"/>
          <line id="Line_43" data-name="Line 43" x2="26.786" transform="translate(22.027 58.04)" fill="none" stroke="#000" stroke-width="1"/>
          <line id="Line_44" data-name="Line 44" y1="4.622" transform="translate(34.957 0.024)" fill="none" stroke="#000" stroke-width="1"/>
          <line id="Line_45" data-name="Line 45" y1="2.368" x2="3.97" transform="translate(58.176 14.998)" fill="none" stroke="#9863b9" stroke-width="1"/>
          <line id="Line_46" data-name="Line 46" x2="4.034" y2="2.257" transform="translate(59.087 44.111)" fill="none" stroke="#9863b9" stroke-width="1"/>
          <line id="Line_47" data-name="Line 47" x1="4.075" y2="2.182" transform="translate(7.943 44.785)" fill="none" stroke="#000" stroke-width="1"/>
          <line id="Line_48" data-name="Line 48" x1="3.961" y1="2.382" transform="translate(8.308 15.929)" fill="none" stroke="#f5d47b" stroke-width="1"/>
          <line id="Line_49" data-name="Line 49" x1="8.307" transform="translate(0 31.453)" fill="none" stroke="#f5d47b" stroke-width="1"/>
          <line id="Line_50" data-name="Line 50" x1="4.361" y1="7.671" transform="translate(17.28 0.364)" fill="none" stroke="#f5d47b" stroke-width="1"/>
          <line id="Line_51" data-name="Line 51" y1="7.298" x2="3.969" transform="translate(48.536 0.239)" fill="none" stroke="#000" stroke-width="1"/>
          <line id="Line_52" data-name="Line 52" y1="0.166" x2="8.823" transform="translate(62.739 30.272)" fill="none" stroke="#9863b9" stroke-width="1"/>
          <path id="Path_31812" data-name="Path 31812" d="M49.451,29.362H47.795a1.789,1.789,0,0,1-1.653-1.1l-.017-.042a1.721,1.721,0,0,1,.373-1.877l1.2-1.2a.834.834,0,0,0,0-1.18l-3.44-3.439a.835.835,0,0,0-1.179,0l-1.2,1.2A1.722,1.722,0,0,1,40,22.093l-.084-.035a1.722,1.722,0,0,1-1.062-1.59v-1.7a.834.834,0,0,0-.834-.834H33.158a.835.835,0,0,0-.834.834v1.657a1.788,1.788,0,0,1-1.1,1.652h0a1.792,1.792,0,0,1-1.952-.388L28.1,20.517a.835.835,0,0,0-1.179,0l-3.44,3.439a.834.834,0,0,0,0,1.18l1.171,1.171a1.789,1.789,0,0,1-1.265,3.055H21.729a.833.833,0,0,0-.834.834v4.863a.833.833,0,0,0,.834.834h1.7a1.72,1.72,0,0,1,1.59,1.062l.035.084a1.721,1.721,0,0,1-.373,1.877l-1.2,1.2a.834.834,0,0,0,0,1.18l3.452,3.452a.841.841,0,0,0,1.155,0l1.183-1.184a1.792,1.792,0,0,1,1.952-.388l.042.018a1.722,1.722,0,0,1,1.061,1.59v1.7a.835.835,0,0,0,.834.834h4.863a.834.834,0,0,0,.834-.834V44.832a1.79,1.79,0,0,1,3.055-1.265l1.184,1.184a.817.817,0,0,0,1.155,0L47.7,41.3a.834.834,0,0,0,0-1.18l-1.2-1.2a1.721,1.721,0,0,1-.373-1.877L46.142,37a1.79,1.79,0,0,1,1.652-1.1h1.657a.833.833,0,0,0,.834-.834V30.2A.833.833,0,0,0,49.451,29.362Z" fill="#f5d47b" stroke="#000" stroke-width="1"/>
          <circle id="Ellipse_27" data-name="Ellipse 27" cx="4.825" cy="4.825" r="4.825" transform="translate(30.765 27.802)" fill="#fff" stroke="#000" stroke-width="1"/>
        </g>
      </g>
    </g>
  </g>
</svg>
